<?xml version="1.0" encoding="utf-8"?>
<svg viewBox="0 0 502 455" xmlns="http://www.w3.org/2000/svg">
  <g transform="matrix(0.1000000014901161, 0, 0, -0.1000000014901161, 0, 454.99999999999994)" fill="#000000" stroke="none">
    <path d="M1310 2915 l0 -1205 180 0 180 0 0 -87 c0 -131 42 -210 132 -248 76 -31 173 -10 230 51 40 43 58 104 58 200 l0 84 409 0 408 0 5 -97 c7 -137 42 -201 130 -238 104 -43 228 10 272 117 11 24 16 69 16 128 l0 90 175 0 175 0 0 1205 0 1205 -1185 0 -1185 0 0 -1205z m2100 455 l0 -480 -915 0 -915 0 0 480 0 480 915 0 915 0 0 -480z m0 -1070 l0 -320 -915 0 -915 0 0 320 0 320 915 0 915 0 0 -320z" style="fill: rgb(70, 84, 163);"/>
    <path d="M1971 2412 c-106 -58 -87 -218 30 -253 82 -25 163 40 163 131 0 76 -45 127 -121 136 -26 4 -49 -1 -72 -14z" style="fill: rgb(70, 84, 163);"/>
    <path d="M2913 2414 c-51 -25 -76 -75 -70 -137 4 -42 10 -56 40 -83 46 -43 94 -52 144 -28 102 51 100 207 -3 250 -43 18 -71 17 -111 -2z" style="fill: rgb(70, 84, 163);"/>
    <path d="M2580 600 l0 -370 50 0 50 0 0 370 0 370 -50 0 -50 0 0 -370z" style="fill: rgb(39, 9, 73);"/>
    <path d="M4279 868 c-1 -57 0 -140 1 -185 1 -46 0 -83 -2 -83 -1 0 -25 11 -52 25 -149 75 -306 -20 -306 -185 0 -97 36 -162 112 -201 62 -32 169 -18 219 27 18 16 19 16 19 -9 0 -26 2 -27 55 -27 l55 0 0 370 0 370 -50 0 -50 0 -1 -102z m-87 -308 c56 -16 78 -51 78 -122 0 -55 -3 -63 -34 -94 -28 -28 -42 -34 -75 -34 -91 0 -140 58 -133 157 2 26 47 82 76 93 29 12 45 12 88 0z" style="fill: rgb(39, 9, 73);"/>
    <path d="M127 923 c-4 -3 -7 -28 -7 -55 l0 -48 90 0 90 0 0 -295 0 -295 55 0 55 0 0 295 0 295 90 0 90 0 0 55 0 55 -228 0 c-126 0 -232 -3 -235 -7z" style="fill: rgb(39, 9, 73);"/>
    <path d="M4503 629 c8 -62 25 -73 116 -79 l79 -5 -108 -157 -109 -158 195 0 194 0 0 45 0 45 -105 0 c-58 0 -105 2 -105 4 0 3 47 73 105 155 l104 151 -129 0 c-136 0 -160 4 -160 26 0 10 -13 14 -41 14 l-42 0 6 -41z" style="fill: rgb(39, 9, 73);"/>
    <path d="M849 630 c-20 -11 -48 -33 -62 -50 -14 -16 -28 -30 -31 -30 -3 0 -6 18 -6 40 l0 40 -50 0 -50 0 0 -200 0 -200 54 0 54 0 4 114 c2 96 6 119 23 141 23 30 57 51 98 60 25 5 27 9 27 55 0 56 -6 59 -61 30z" style="fill: rgb(39, 9, 73);"/>
    <path d="M1105 632 c-92 -43 -139 -145 -116 -252 15 -68 48 -112 106 -140 62 -30 137 -25 194 13 l41 27 0 -25 c0 -24 3 -25 55 -25 l55 0 0 200 0 200 -49 0 c-41 0 -50 -3 -54 -21 -6 -21 -6 -20 -42 7 -48 37 -131 44 -190 16z m174 -86 c35 -19 51 -55 51 -117 0 -45 -4 -55 -34 -85 -29 -29 -41 -34 -80 -34 -115 0 -169 143 -84 222 24 22 40 28 75 28 24 0 56 -6 72 -14z" style="fill: rgb(39, 9, 73);"/>
    <path d="M2181 636 c-42 -15 -107 -69 -125 -104 -22 -44 -27 -96 -15 -152 28 -132 187 -198 322 -134 l36 17 -21 36 c-12 20 -22 37 -23 39 -1 1 -18 -5 -38 -13 -20 -8 -49 -15 -64 -15 -28 0 -93 33 -93 48 0 4 66 29 148 56 81 27 150 51 154 55 12 11 -20 83 -54 118 -18 20 -47 42 -65 49 -39 17 -116 17 -162 0z m147 -102 c13 -15 20 -30 15 -34 -9 -8 -179 -70 -194 -70 -14 0 -11 48 6 80 33 64 127 78 173 24z" style="fill: rgb(39, 9, 73);"/>
    <path d="M2915 630 c-74 -37 -115 -107 -115 -199 1 -123 84 -211 200 -211 39 0 112 29 125 50 11 18 25 10 25 -15 0 -23 3 -25 50 -25 l50 0 0 201 0 200 -47 -3 c-41 -3 -48 -6 -53 -28 -5 -21 -7 -23 -16 -9 -32 56 -144 76 -219 39z m202 -105 c34 -34 35 -37 31 -97 -4 -53 -9 -65 -36 -89 -71 -64 -192 -18 -202 76 -6 54 2 79 34 111 30 30 40 34 86 34 46 0 56 -4 87 -35z" style="fill: rgb(39, 9, 73);"/>
    <path d="M3592 635 c-17 -8 -43 -26 -57 -41 l-25 -27 -6 32 c-6 30 -9 31 -55 31 l-49 0 0 -200 0 -200 55 0 55 0 0 98 c0 53 5 115 11 136 15 55 59 96 102 96 61 0 67 -17 67 -183 l0 -147 55 0 55 0 0 169 c0 156 -2 170 -21 195 -43 54 -118 71 -187 41z" style="fill: rgb(39, 9, 73);"/>
    <path d="M1548 598 c11 -18 61 -107 112 -198 50 -91 95 -168 99 -172 6 -7 221 380 221 397 0 3 -26 5 -57 5 l-58 0 -45 -106 c-25 -58 -48 -107 -51 -109 -3 -2 -30 45 -59 106 l-54 109 -64 0 -64 0 20 -32z" style="fill: rgb(39, 9, 73);"/>
  </g>
</svg>